<?xml version="1.0" encoding="UTF-8" standalone="no"?>
<svg
  version="1.1"
  viewBox="0 0 1000 1000"
  xmlns="http://www.w3.org/2000/svg"
>
  <path
    fill="#ffae43"
    d="m129.5 677.6a28.85 28.9 0 0 0-29.53 28.89v16.51a28.85 28.9 0 0 0 14.42 25.03l14.27 8.257a28.85 28.9 0 0 0 43.27-25.03v-16.51a28.85 28.9 0 0 0-14.42-25.03l-14.27-8.257a28.85 28.9 0 0 0-13.74-3.861zm0-280.7a28.85 28.9 0 0 0-29.53 28.89v115.6a28.85 28.9 0 0 0 14.42 25.03l142.6 82.49v165a28.85 28.9 0 0 0 14.42 25.03l99.92 57.8a28.85 28.9 0 0 0 43.27-25.03v-297.2a28.85 28.9 0 0 0-14.42-25.03l-257-148.6a28.85 28.9 0 0 0-13.74-3.861zm128.5-206.4a28.85 28.9 0 0 0-15.1 3.864l-99.92 57.8a28.85 28.9 0 0 0 0 50.05l356.7 206.3v412.7a28.85 28.9 0 0 0 43.27 25.03l99.92-57.8a28.85 28.9 0 0 0 14.42-25.03v-429.4a28.85 28.9 0 0 0-14.42-25.03l-371.2-214.7a28.85 28.9 0 0 0-13.74-3.864zm242.7-140.4a28.85 28.9 0 0 0-15.1 3.861l-99.93 57.8a28.85 28.9 0 0 0 0 50.05l356.7 206.3v412.7a28.85 28.9 0 0 0 43.27 25.03l99.92-57.8a28.85 28.9 0 0 0 14.42-25.03v-429.4a28.85 28.9 0 0 0-14.42-25.03l-371.2-214.7a28.85 28.9 0 0 0-13.74-3.861z"
  />
</svg>
